<svg width="147" height="19" viewBox="0 0 147 19" fill="none" xmlns="http://www.w3.org/2000/svg">
<path d="M6.73266 18.168C5.56466 18.168 4.50866 17.968 3.56466 17.568C2.63666 17.168 1.90066 16.592 1.35666 15.84C0.812656 15.088 0.532656 14.2 0.516656 13.176H4.11666C4.16466 13.864 4.40466 14.408 4.83666 14.808C5.28466 15.208 5.89266 15.408 6.66066 15.408C7.44466 15.408 8.06066 15.224 8.50866 14.856C8.95666 14.472 9.18066 13.976 9.18066 13.368C9.18066 12.872 9.02866 12.464 8.72466 12.144C8.42066 11.824 8.03666 11.576 7.57266 11.4C7.12466 11.208 6.50066 11 5.70066 10.776C4.61266 10.456 3.72466 10.144 3.03666 9.84C2.36466 9.52 1.78066 9.048 1.28466 8.424C0.804656 7.784 0.564656 6.936 0.564656 5.88C0.564656 4.888 0.812656 4.024 1.30866 3.288C1.80466 2.552 2.50066 1.992 3.39666 1.608C4.29266 1.208 5.31666 1.008 6.46866 1.008C8.19666 1.008 9.59666 1.432 10.6687 2.28C11.7567 3.112 12.3567 4.28 12.4687 5.784H8.77266C8.74066 5.208 8.49266 4.736 8.02866 4.368C7.58066 3.984 6.98066 3.792 6.22866 3.792C5.57266 3.792 5.04466 3.96 4.64466 4.296C4.26066 4.632 4.06866 5.12 4.06866 5.76C4.06866 6.208 4.21266 6.584 4.50066 6.888C4.80466 7.176 5.17266 7.416 5.60466 7.608C6.05266 7.784 6.67666 7.992 7.47666 8.232C8.56466 8.552 9.45266 8.872 10.1407 9.192C10.8287 9.512 11.4207 9.992 11.9167 10.632C12.4127 11.272 12.6607 12.112 12.6607 13.152C12.6607 14.048 12.4287 14.88 11.9647 15.648C11.5007 16.416 10.8207 17.032 9.92466 17.496C9.02866 17.944 7.96466 18.168 6.73266 18.168ZM18.6697 1.248V18H15.3097V1.248H18.6697ZM39.9893 1.248V18H36.6293V7.104L32.1413 18H29.5973L25.0853 7.104V18H21.7253V1.248H25.5413L30.8693 13.704L36.1973 1.248H39.9893ZM46.4073 1.248V18H43.0473V1.248H46.4073Z" fill="url(#paint0_linear_387_536)"/>
<path d="M55.2388 18H50.1252V0.545454H55.5456C57.2104 0.545454 58.6337 0.892045 59.8155 1.58523C61.003 2.27841 61.9121 3.27273 62.5428 4.56818C63.1734 5.86364 63.4888 7.41761 63.4888 9.23011C63.4888 11.0597 63.1649 12.6307 62.5172 13.9432C61.8752 15.25 60.9377 16.2528 59.7047 16.9517C58.4774 17.6506 56.9888 18 55.2388 18ZM51.7189 16.5682H55.145C56.645 16.5682 57.9007 16.2727 58.9121 15.6818C59.9234 15.0909 60.682 14.2472 61.1877 13.1506C61.6933 12.054 61.9462 10.7472 61.9462 9.23011C61.9405 7.72443 61.6905 6.42898 61.1962 5.34375C60.7075 4.25852 59.9803 3.42614 59.0144 2.84659C58.0541 2.26704 56.8666 1.97727 55.4519 1.97727H51.7189V16.5682ZM67.0877 18V0.545454H77.2127V1.97727H68.6815V8.5483H76.6758V9.98011H68.6815V16.5682H77.3832V18H67.0877ZM81.0737 18V0.545454H91.1731V1.97727H82.6675V8.5483H90.3805V9.98011H82.6675V18H81.0737ZM96.466 0.545454V18H94.8722V0.545454H96.466ZM114.436 0.545454V18H112.885L102.573 3.38352H102.436V18H100.843V0.545454H102.385L112.732 15.179H112.868V0.545454H114.436ZM118.813 18V0.545454H128.938V1.97727H120.407V8.5483H128.401V9.98011H120.407V16.5682H129.108V18H118.813ZM137.913 18H132.799V0.545454H138.219C139.884 0.545454 141.307 0.892045 142.489 1.58523C143.677 2.27841 144.586 3.27273 145.217 4.56818C145.847 5.86364 146.163 7.41761 146.163 9.23011C146.163 11.0597 145.839 12.6307 145.191 13.9432C144.549 15.25 143.611 16.2528 142.379 16.9517C141.151 17.6506 139.663 18 137.913 18ZM134.393 16.5682H137.819C139.319 16.5682 140.575 16.2727 141.586 15.6818C142.597 15.0909 143.356 14.2472 143.861 13.1506C144.367 12.054 144.62 10.7472 144.62 9.23011C144.614 7.72443 144.364 6.42898 143.87 5.34375C143.381 4.25852 142.654 3.42614 141.688 2.84659C140.728 2.26704 139.54 1.97727 138.126 1.97727H134.393V16.5682Z" fill="#B5A5A5"/>
<defs>
<linearGradient id="paint0_linear_387_536" x1="45.8898" y1="18.5263" x2="1.65975" y2="4.18765" gradientUnits="userSpaceOnUse">
<stop offset="0.591124" stop-color="#F9C977"/>
<stop offset="1" stop-color="#937746"/>
</linearGradient>
</defs>
</svg>
